<?xml version="1.0" encoding="UTF-8" standalone="no"?>
<!-- See license.txt for terms of usage -->
<svg
   xmlns:dc="http://purl.org/dc/elements/1.1/"
   xmlns:cc="http://creativecommons.org/ns#"
   xmlns:rdf="http://www.w3.org/1999/02/22-rdf-syntax-ns#"
   xmlns:svg="http://www.w3.org/2000/svg"
   xmlns="http://www.w3.org/2000/svg"
   xmlns:xlink="http://www.w3.org/1999/xlink"
   version="1.1"
   id="svg2"
   enable-background="new 0 0 16 16"
   viewBox="0 0 16 16"
   height="16"
   width="16">
  <metadata
     id="metadata28">
    <rdf:RDF>
      <cc:Work
         rdf:about="">
        <dc:format>image/svg+xml</dc:format>
        <dc:type
           rdf:resource="http://purl.org/dc/dcmitype/StillImage" />
        <dc:title></dc:title>
      </cc:Work>
    </rdf:RDF>
  </metadata>
  <defs
     id="defs26">
    <linearGradient
       id="linearGradient4269">
      <stop
         id="stop4271"
         offset="0"
         style="stop-color:#141414;stop-opacity:1" />
      <stop
         id="stop4273"
         offset="1"
         style="stop-color:#3c3c3c;stop-opacity:1" />
    </linearGradient>
    <linearGradient
       id="linearGradient4250">
      <stop
         id="stop4252"
         offset="0"
         style="stop-color:#282828;stop-opacity:1" />
      <stop
         id="stop4254"
         offset="1"
         style="stop-color:#505050;stop-opacity:1" />
    </linearGradient>
    <linearGradient
       id="linearGradient4234">
      <stop
         id="stop4236"
         offset="0"
         style="stop-color:#1b4a5d;stop-opacity:1" />
      <stop
         id="stop4238"
         offset="1"
         style="stop-color:#498ba7;stop-opacity:1" />
    </linearGradient>
    <linearGradient
       id="linearGradient4226">
      <stop
         id="stop4228"
         offset="0"
         style="stop-color:#24627c;stop-opacity:1" />
      <stop
         id="stop4230"
         offset="1"
         style="stop-color:#4da6cb;stop-opacity:1" />
    </linearGradient>
    <linearGradient
       gradientUnits="userSpaceOnUse"
       y2="4.0158105"
       x2="3.5098813"
       y1="12.490119"
       x1="11.98419"
       id="linearGradient4232"
       xlink:href="#linearGradient4226"
       gradientTransform="matrix(0.97222219,0,0,0.97222219,0.22222248,0.22222205)" />
    <linearGradient
       gradientUnits="userSpaceOnUse"
       y2="1.9288535"
       x2="4.9328065"
       y1="11.035573"
       x1="14.039526"
       id="linearGradient4240"
       xlink:href="#linearGradient4234"
       gradientTransform="matrix(0.97222219,0,0,0.97222219,0.22222248,0.22222205)" />
    <linearGradient
       gradientUnits="userSpaceOnUse"
       y2="7.778656"
       x2="3.9209485"
       y1="8.094862"
       x1="5.090909"
       id="linearGradient4256"
       xlink:href="#linearGradient4250" />
    <linearGradient
       gradientUnits="userSpaceOnUse"
       y2="-2.684567"
       x2="6.7778969"
       y1="-3.0352504"
       x1="8.0866652"
       id="linearGradient4258"
       xlink:href="#linearGradient4250" />
    <linearGradient
       gradientUnits="userSpaceOnUse"
       y2="-10.579328"
       x2="-0.58515918"
       y1="-11.252998"
       x1="-0.19621527"
       id="linearGradient4260"
       xlink:href="#linearGradient4250" />
    <linearGradient
       gradientUnits="userSpaceOnUse"
       y2="-7.7944565"
       x2="-10.81479"
       y1="-8.158103"
       x1="-12.171937"
       id="linearGradient4262"
       xlink:href="#linearGradient4250" />
    <linearGradient
       gradientUnits="userSpaceOnUse"
       y2="7.5256915"
       x2="7.2711458"
       y1="8.505929"
       x1="8.4442692"
       id="linearGradient4266"
       xlink:href="#linearGradient4250" />
    <linearGradient
       gradientUnits="userSpaceOnUse"
       y2="6.640316"
       x2="7.9683795"
       y1="7.7470355"
       x1="9.359684"
       id="linearGradient4275"
       xlink:href="#linearGradient4269" />
  </defs>
  <path
     id="path4177"
     d="M 8,1.1944443 A 6.8055554,6.8055554 0 0 0 1.1944447,7.9999997 6.8055554,6.8055554 0 0 0 8,14.805556 6.8055554,6.8055554 0 0 0 14.805555,7.9999997 6.8055554,6.8055554 0 0 0 8,1.1944443 Z M 8,3.1388886 A 4.861111,4.861111 0 0 1 12.861111,7.9999997 4.861111,4.861111 0 0 1 8,12.861112 4.861111,4.861111 0 0 1 3.138889,7.9999997 4.861111,4.861111 0 0 1 8,3.1388886 Z"
     style="opacity:1;fill:url(#linearGradient4232);fill-opacity:1;stroke:url(#linearGradient4240);stroke-width:0.3888889;stroke-miterlimit:4;stroke-dasharray:none;stroke-opacity:1" />
  <rect
     y="7.5"
     x="3.5"
     height="1"
     width="2"
     id="rect4183"
     style="opacity:1;fill:url(#linearGradient4256);fill-opacity:1" />
  <rect
     transform="scale(-1,-1)"
     y="-8.5"
     x="-12.519763"
     height="1"
     width="2"
     id="rect4183-0"
     style="opacity:1;fill:url(#linearGradient4262);fill-opacity:1" />
  <rect
     transform="matrix(0.5,0.8660254,-0.8660254,0.5,0,0)"
     y="-3.4367607"
     x="6.4232626"
     height="1"
     width="2"
     id="rect4183-2"
     style="opacity:1;fill:url(#linearGradient4258);fill-opacity:1" />
  <rect
     transform="matrix(-0.5,0.8660254,-0.8660254,-0.5,0,0)"
     y="-11.436761"
     x="-1.5866189"
     height="1"
     width="2"
     id="rect4183-07"
     style="opacity:1;fill:url(#linearGradient4260);fill-opacity:1" />
  <path
     id="path4222"
     d="M 10.828125 5.1679688 L 9.1484375 6.3183594 L 8.1367188 7.0117188 A 1 1 0 0 0 8 7 A 1 1 0 0 0 7 8 A 1 1 0 0 0 8 9 A 1 1 0 0 0 9 8 A 1 1 0 0 0 8.9902344 7.8574219 L 9.6796875 6.8476562 L 10.828125 5.1679688 z "
     style="opacity:1;fill:url(#linearGradient4266);fill-opacity:1;stroke:url(#linearGradient4275);stroke-opacity:1;stroke-width:0.4;stroke-miterlimit:4;stroke-dasharray:none;stroke-linejoin:round" />
</svg>
