<?xml version="1.0" encoding="UTF-8" standalone="no"?>
<!-- See license.txt for terms of usage -->
<svg
   xmlns:dc="http://purl.org/dc/elements/1.1/"
   xmlns:cc="http://creativecommons.org/ns#"
   xmlns:rdf="http://www.w3.org/1999/02/22-rdf-syntax-ns#"
   xmlns:svg="http://www.w3.org/2000/svg"
   xmlns="http://www.w3.org/2000/svg"
   xmlns:xlink="http://www.w3.org/1999/xlink"
   viewBox="0 0 16 16"
   version="1.1"
   id="svg4297"
   height="16"
   width="16">
  <defs
     id="defs4299">
    <linearGradient
       id="linearGradient4979">
      <stop
         id="stop4981"
         offset="0"
         style="stop-color:#3ec32d;stop-opacity:1" />
      <stop
         id="stop4983"
         offset="1"
         style="stop-color:#1f6216;stop-opacity:1" />
    </linearGradient>
    <linearGradient
       id="linearGradient4955">
      <stop
         id="stop4957"
         offset="0"
         style="stop-color:#91dfff;stop-opacity:1" />
      <stop
         id="stop4959"
         offset="1"
         style="stop-color:#0071a0;stop-opacity:1" />
    </linearGradient>
    <linearGradient
       id="linearGradient4947">
      <stop
         id="stop4949"
         offset="0"
         style="stop-color:#a5e5ff;stop-opacity:1" />
      <stop
         id="stop4951"
         offset="1"
         style="stop-color:#00a9f0;stop-opacity:1" />
    </linearGradient>
    <radialGradient
       gradientTransform="matrix(0.76407482,0.76407487,-0.72262575,0.72262575,5.3161472,-2.4883372)"
       gradientUnits="userSpaceOnUse"
       r="8.0000002"
       fy="5.6265984"
       fx="5.299233"
       cy="5.6265984"
       cx="5.299233"
       id="radialGradient4953"
       xlink:href="#linearGradient4947" />
    <radialGradient
       gradientTransform="matrix(0.79539638,0.79539638,-0.70710718,0.70710638,6.1724095,-4.826625)"
       gradientUnits="userSpaceOnUse"
       r="8.0000002"
       fy="7.9800386"
       fx="5.1475902"
       cy="7.9800386"
       cx="5.1475902"
       id="radialGradient4961"
       xlink:href="#linearGradient4955" />
    <radialGradient
       gradientUnits="userSpaceOnUse"
       gradientTransform="matrix(0.83298825,0.83298825,-0.717569,0.71757025,4.1683891,-1.8605403)"
       r="7.5898436"
       fy="4.4860711"
       fx="5.2957411"
       cy="4.4860711"
       cx="5.2957411"
       id="radialGradient4985"
       xlink:href="#linearGradient4979" />
  </defs>
  <metadata
     id="metadata4302">
    <rdf:RDF>
      <cc:Work
         rdf:about="">
        <dc:format>image/svg+xml</dc:format>
        <dc:type
           rdf:resource="http://purl.org/dc/dcmitype/StillImage" />
        <dc:title></dc:title>
      </cc:Work>
    </rdf:RDF>
  </metadata>
  <g
     style="display:inline"
     id="layer1">
    <circle
       r="7.8000002"
       cy="8"
       cx="8"
       id="path4856"
       style="color:#000000;clip-rule:nonzero;display:inline;overflow:visible;visibility:visible;opacity:1;color-interpolation:sRGB;color-interpolation-filters:linearRGB;fill:url(#radialGradient4953);fill-opacity:1;fill-rule:nonzero;stroke:url(#radialGradient4961);stroke-width:0.40000001;stroke-linecap:butt;stroke-linejoin:round;stroke-miterlimit:4;stroke-dasharray:none;stroke-dashoffset:0;stroke-opacity:1;marker:none;enable-background:accumulate" />
    <path
       id="path4881"
       d="M 8 0.19921875 A 7.8000002 7.8000002 0 0 0 5.9726562 0.47070312 C 6.0245097 0.49836851 6.1035558 0.54591853 6.1171875 0.55273438 C 6.5860735 0.7871774 7.0588298 0.42992348 7.3046875 0.67578125 C 7.4375328 0.80862655 7.5692959 0.85734187 7.6523438 1.0234375 C 7.9283107 1.5753715 7.5867655 1.6836999 8.2246094 2.0664062 C 8.2809097 2.1001863 8.4425123 2.1730908 8.5117188 2.1269531 C 8.6984416 2.0024712 8.6348936 1.6774781 8.7167969 1.5136719 C 8.7922048 1.3628566 9.0809516 1.3526421 9.1660156 1.2675781 C 9.5773466 0.85624715 8.0659696 0.27994014 8.0410156 0.20507812 C 8.0406425 0.20395885 8.0413799 0.20229605 8.0410156 0.20117188 A 7.8000002 7.8000002 0 0 0 8 0.19921875 z M 5.4335938 0.64453125 A 7.8000002 7.8000002 0 0 0 0.62109375 5.5 C 0.64477153 5.5603249 0.67074119 5.6196455 0.69140625 5.6816406 C 0.88005858 6.2475975 0.55485125 6.8382182 0.81835938 7.3652344 C 0.96760674 7.6637292 1.118624 7.8744833 1.3496094 8.1054688 C 1.4111375 8.1669968 1.694286 8.1278797 1.7636719 8.1972656 C 1.852282 8.2858757 1.7939747 8.3048051 1.8203125 8.4101562 C 1.8607975 8.5720964 2.1521314 8.659944 2.25 8.7578125 C 2.4575191 8.9653317 2.3743825 9.4486012 2.5683594 9.6425781 C 2.6382566 9.7124753 3.0215637 9.7689171 3.2011719 9.8144531 C 3.3636929 9.855657 3.4369396 9.9228699 3.5292969 9.9648438 C 3.4504493 10.27257 3.4871383 10.666981 3.3964844 10.824219 C 3.2823526 11.022179 3.1599246 11.193823 3.0488281 11.416016 C 2.9644581 11.584755 3.1399939 11.805378 3.1914062 11.908203 C 3.345712 12.216815 3.8113383 12.388302 3.9492188 12.664062 C 4.0908841 12.947393 4.459628 13.657549 4.7265625 13.791016 C 4.8141625 13.834816 4.9710227 13.890945 5.0332031 13.953125 C 5.1367587 14.056681 5.1003294 14.716266 5.109375 15.236328 A 7.8000002 7.8000002 0 0 0 6.2910156 15.603516 C 6.5294177 15.422466 6.8153977 15.292497 7.0800781 15.160156 C 7.272307 15.064046 7.6588076 15.242715 7.7949219 15.140625 C 8.1153274 14.900321 8.195921 14.556438 8.59375 14.423828 C 8.7502015 14.371678 9.1865879 14.485284 9.2890625 14.382812 C 9.4278683 14.244007 9.5900514 14.048413 9.6777344 13.873047 C 9.7406208 13.747274 9.6376038 13.442917 9.8007812 13.361328 C 10.066895 13.228271 10.641085 12.792396 10.496094 12.357422 C 10.265119 11.664498 8.3046008 12.029211 8.1015625 11.826172 C 7.9132916 11.637901 8.0736263 11.165402 7.7910156 10.96875 C 7.4898994 10.759221 7.1366576 10.747466 6.7675781 10.564453 C 6.427522 10.395831 6.0630906 10.052764 5.984375 9.9414062 C 5.8125016 9.6982601 5.8407824 10.134597 5.4023438 10.080078 C 5.1938195 10.054149 5.0205884 9.5146188 4.7773438 9.5585938 C 4.5979785 9.5910202 4.5534873 9.9629481 4.3886719 9.9082031 C 4.21788 9.8514728 4.5407409 9.4940512 3.8867188 9.5761719 C 3.7246111 9.5965265 3.6347973 9.6900536 3.5742188 9.8105469 C 3.4065766 9.6458146 2.9505329 9.5794395 2.7617188 9.390625 C 2.6195278 9.2484337 2.7762806 8.7682966 2.6972656 8.53125 C 2.6568089 8.4098799 2.2870944 8.4499007 2.2246094 8.3144531 C 2.1700739 8.1962376 2.5577988 7.7426864 2.4570312 7.6054688 C 2.1623613 7.2042081 1.1333513 8.0576983 1.7929688 6.5273438 C 1.8568067 6.3792354 1.8173587 6.1549639 1.9648438 6.0566406 C 2.2109055 5.8925994 2.7814214 6.1863989 3.1210938 6.1640625 C 3.3346817 6.1500171 3.1918427 7.0860386 3.5039062 7.0976562 C 3.8925216 7.1121239 3.7252996 6.360991 3.796875 6.2011719 C 3.9521891 5.8543744 4.2981072 5.636353 4.5058594 5.4042969 C 4.6480578 5.2454634 4.9771171 4.8268711 5.1699219 4.7304688 C 5.2945929 4.6681333 5.5670127 4.6556435 5.6660156 4.5566406 C 5.8384126 4.3842436 5.6612295 4.2692629 6.0429688 4.1738281 C 6.1684724 4.1424522 6.4672259 4.5573273 6.6699219 4.2148438 C 6.8272607 3.9489976 6.1249902 3.7071737 6.3027344 3.4570312 C 6.5956598 3.0447925 7.6064274 3.924751 7.1855469 2.6621094 C 7.1573616 2.5775538 6.9383771 2.3744619 6.8378906 2.3242188 C 6.5392059 2.1748763 6.2397982 1.8090959 5.8417969 1.9863281 C 5.2304594 2.2585601 5.1512107 2.9725521 4.8691406 2.8847656 C 4.7584743 2.8503238 4.8702416 2.6359942 4.8398438 2.4140625 C 4.8154842 2.2362155 4.6360723 2.0594337 4.6621094 1.9277344 C 4.6970796 1.7508508 4.8666757 1.6389278 4.9921875 1.5761719 C 5.0986158 1.5229577 5.973358 1.4131531 6.2421875 1.53125 C 6.3821648 1.5927421 6.3346363 1.7854822 6.4863281 1.8613281 C 6.803121 2.0197245 7.4733531 1.4190139 7.2226562 1.0429688 C 7.1307518 0.90511203 6.1581473 0.82843459 5.4335938 0.64453125 z M 10.769531 0.71875 C 10.800082 0.80509988 10.834151 0.88917067 10.865234 0.98242188 C 10.911114 1.1200607 11.123589 1.1213647 11.212891 1.1660156 C 11.582856 1.3509978 11.899919 2.1977373 12.460938 1.6367188 C 12.467663 1.6299934 12.466625 1.6220857 12.472656 1.6152344 A 7.8000002 7.8000002 0 0 0 10.769531 0.71875 z M 12.646484 1.7460938 C 12.649925 1.8260469 12.658569 1.9227312 12.644531 1.9648438 C 12.576431 2.1691377 12.439453 1.967935 12.439453 2.25 C 12.439453 2.3734325 12.372089 3.0830264 12.480469 3.1914062 C 12.609507 3.320444 12.847103 3.3088888 12.910156 3.4980469 C 13.040831 3.890071 12.400734 3.9925313 12.521484 4.1132812 C 12.571564 4.1633632 12.726562 4.2148438 12.726562 4.2148438 C 12.797034 4.3113877 12.695088 4.5525125 12.767578 4.625 C 13.703972 5.5613937 13.304983 3.6571471 13.361328 3.4980469 C 13.424278 3.3202873 13.693807 3.7009478 13.892578 3.6015625 C 14.005776 3.5449634 14.089842 3.3965085 14.15625 3.21875 A 7.8000002 7.8000002 0 0 0 12.646484 1.7460938 z M 11.533203 2.125 C 11.380951 2.205728 11.333746 2.5147036 11.544922 2.5878906 C 11.80534 2.6781416 11.516024 2.7361841 11.601562 2.7832031 C 11.76522 2.8731593 12.335938 2.7371599 12.335938 2.5859375 C 12.335938 2.3231856 11.678492 2.047965 11.533203 2.125 z M 14.240234 4.234375 C 14.185394 4.179533 13.39091 5.0211064 13.320312 5.1152344 C 13.112475 5.3923522 13.428779 6.0712195 13.238281 6.2617188 C 13.001799 6.4982005 13.091469 6.6835188 13.013672 6.9765625 C 12.975972 7.1185538 12.847292 7.3687753 12.951172 7.4726562 C 13.05963 7.5811139 13.049649 7.5652749 13.15625 7.671875 C 13.339024 7.8546489 12.932269 8.4928164 13.115234 8.6757812 C 13.481297 9.0418449 13.61732 9.5176223 14.220703 9.71875 C 14.348308 9.761285 14.95771 9.1518913 15.121094 9.0429688 C 15.155444 9.0200647 15.399905 8.701163 15.46875 8.8789062 C 15.500439 8.9607164 15.589976 9.1603292 15.675781 9.3378906 A 7.8000002 7.8000002 0 0 0 15.800781 8 A 7.8000002 7.8000002 0 0 0 14.980469 4.5292969 C 14.803938 4.7193896 14.596924 4.8479825 14.505859 4.7265625 C 14.376806 4.5544916 14.38148 4.3756207 14.240234 4.234375 z M 3.2851562 7.3183594 C 3.2149816 7.3304463 3.1453284 7.3670599 3.0800781 7.4375 C 2.9417131 7.5868703 3.4401474 7.877737 3.6835938 8.0195312 C 4.3051033 8.3815274 3.7763796 7.2337506 3.2851562 7.3183594 z M 4.7304688 8.1953125 C 4.4744032 8.1733641 4.2261753 8.2153814 4.2753906 8.3886719 C 4.2753906 8.3886719 4.4807823 8.6354373 4.7167969 8.609375 C 4.9992127 8.578189 5.1980567 8.567723 5.234375 8.3886719 C 5.251759 8.3029684 4.9865343 8.2172609 4.7304688 8.1953125 z "
       style="fill:url(#radialGradient4985);fill-rule:evenodd;stroke:none;stroke-width:1px;stroke-linecap:butt;stroke-linejoin:miter;stroke-opacity:1;fill-opacity:1" />
  </g>
</svg>
